<svg height="16" viewBox="0 0 64 64" width="20" xmlns="http://www.w3.org/2000/svg"><g fill-rule="evenodd" transform="translate(4 -74)"><path fill="#ffffff" d="m27 132.0003c-13.785 0-25-11.215-25-25s11.215-25 25-25 25 11.215 25 25-11.215 25-25 25m0-52c-14.888 0-27 12.112-27 27s12.112 27 27 27 27-12.112 27-27-12.112-27-27-27"/><path d="m40 114.0002c0 3.309-2.691 6-6 6h-14c-3.309 0-6-2.691-6-6v-14c0-3.309 2.691-6 6-6h14c3.309 0 6 2.691 6 6zm-6-22h-14c-4.411 0-8 3.589-8 8v14c0 4.411 3.589 8 8 8h14c4.411 0 8-3.589 8-8v-14c0-4.411-3.589-8-8-8z"/><path d="m27 113.0002c-3.309 0-6-2.691-6-6s2.691-6 6-6 6 2.691 6 6-2.691 6-6 6m0-14c-4.411 0-8 3.589-8 8s3.589 8 8 8 8-3.589 8-8-3.589-8-8-8"/><path d="m35 97.0002c-1.103 0-2 .897-2 2s.897 2 2 2 2-.897 2-2-.897-2-2-2"/></g></svg>